<svg width="8" height="9" viewBox="0 0 8 9" fill="none" xmlns="http://www.w3.org/2000/svg">
<path d="M3.99985 4.96485L7.11498 8.07989C7.3176 8.28261 7.64522 8.28261 7.84785 8.07989C8.05047 7.87727 8.05047 7.54965 7.84785 7.34702L4.73272 4.23189L7.84785 1.11685C8.05047 0.914126 8.05047 0.586601 7.84785 0.383975C7.64522 0.181253 7.3176 0.181253 7.11498 0.383975L3.99985 3.49901L0.884722 0.383975C0.682096 0.181253 0.354477 0.181253 0.151851 0.383975C0.0507751 0.484956 0 0.617731 0 0.750411C0 0.883091 0.0507751 1.01577 0.151851 1.11685L3.26698 4.23189L0.151851 7.34702C0.0507751 7.4481 7.02457e-08 7.58078 7.02457e-08 7.71346C7.02457e-08 7.84614 0.0507751 7.97882 0.151851 8.07989C0.354477 8.28261 0.682096 8.28261 0.884722 8.07989L3.99985 4.96485Z" fill="#262728"/>
</svg>
