<?xml version="1.0" encoding="utf-8"?><svg xmlns="http://www.w3.org/2000/svg" xmlns:xlink="http://www.w3.org/1999/xlink"><symbol viewBox="0 0 22 24" id="basket" xmlns="http://www.w3.org/2000/svg"><g clip-path="url(#aa)"><path d="M10.363 18.443a2.046 2.046 0 00-2.045 2.042 2.046 2.046 0 004.09 0 2.046 2.046 0 00-2.045-2.042zm6.134 0a2.046 2.046 0 00-2.045 2.042 2.046 2.046 0 004.089 0 2.046 2.046 0 00-2.044-2.042zm3.978-8.199L7.413 6.891a.614.614 0 00-.75.73L8.67 16.4h-.786L5.482 5.895a.613.613 0 00-.474-.464l-4.27-.882A.614.614 0 00.489 5.75l3.885.802L6.797 17.15a.613.613 0 00.598.477h12.07a.615.615 0 00.607-.53l.858-6.175a.613.613 0 00-.455-.678zm-8.14 3.91a.613.613 0 01-1.227 0v-2.696a.613.613 0 011.227 0v2.696zm2.625 0a.613.613 0 01-1.227 0v-1.88a.613.613 0 011.227 0v1.88zm2.625 0a.613.613 0 01-1.227 0v-1.226a.613.613 0 011.227 0v1.226z"/></g><path fill-rule="evenodd" clip-rule="evenodd" d="M16.268 4.568a2.996 2.996 0 00-1.693-.523c-.627 0-1.21.193-1.693.523-.28-.843-.492-1.752-.492-2.383C12.39.98 13.37 0 14.575 0s2.185.98 2.185 2.185c0 .631-.212 1.54-.492 2.383zm-4.722 2.274l.024.006v-.011l-.024.005zm4.972 1.217c-1.333-.33-2.766-.681-4.129-1.013a2.185 2.185 0 114.129 1.013zm4.436 1.103c-.866-.217-2.155-.538-3.618-.9a2.995 2.995 0 00.243-1.425c.87.18 1.762.45 2.308.765.596.344.969.928 1.067 1.56zM9.869 6.439c-.36-.086-.706-.167-1.03-.243a2.19 2.19 0 01-.376-2.667 2.188 2.188 0 013.147-.7c.098.738.338 1.599.61 2.353a3.01 3.01 0 00-.449.774c-.628.113-1.305.278-1.902.483zm10.124.075a3.43 3.43 0 01-.217.114c-.696-.295-1.587-.526-2.397-.672a3.01 3.01 0 00-.449-.774c.262-.727.494-1.553.599-2.273.095-.067.189-.128.278-.18a2.188 2.188 0 012.986.8 2.188 2.188 0 01-.8 2.985z"/><defs><clipPath id="aa"><path transform="translate(0 3.064)" d="M0 0h20.936v20.936H0z"/></clipPath></defs></symbol><symbol viewBox="0 0 10 8" id="check" xmlns="http://www.w3.org/2000/svg"><path fill-rule="evenodd" clip-rule="evenodd" d="M9.9 1.414L8.485 0 4.243 4.243 1.414 1.414 0 2.828l4.243 4.243L9.9 1.414z"/></symbol><symbol viewBox="0 0 14 10" id="check2" xmlns="http://www.w3.org/2000/svg"><path d="M12.924 1.419l-7.201 7.2L1.13 4.028"/></symbol><symbol viewBox="0 0 448 512" class="dsvg-inline--fa dfa-instagram dfa-w-14" id="in" xmlns="http://www.w3.org/2000/svg"><path d="M224.1 141c-63.6 0-114.9 51.3-114.9 114.9s51.3 114.9 114.9 114.9S339 319.5 339 255.9 287.7 141 224.1 141zm0 189.6c-41.1 0-74.7-33.5-74.7-74.7s33.5-74.7 74.7-74.7 74.7 33.5 74.7 74.7-33.6 74.7-74.7 74.7zm146.4-194.3c0 14.9-12 26.8-26.8 26.8-14.9 0-26.8-12-26.8-26.8s12-26.8 26.8-26.8 26.8 12 26.8 26.8zm76.1 27.2c-1.7-35.9-9.9-67.7-36.2-93.9-26.2-26.2-58-34.4-93.9-36.2-37-2.1-147.9-2.1-184.9 0-35.8 1.7-67.6 9.9-93.9 36.1s-34.4 58-36.2 93.9c-2.1 37-2.1 147.9 0 184.9 1.7 35.9 9.9 67.7 36.2 93.9s58 34.4 93.9 36.2c37 2.1 147.9 2.1 184.9 0 35.9-1.7 67.7-9.9 93.9-36.2 26.2-26.2 34.4-58 36.2-93.9 2.1-37 2.1-147.8 0-184.8zM398.8 388c-7.8 19.6-22.9 34.7-42.6 42.6-29.5 11.7-99.5 9-132.1 9s-102.7 2.6-132.1-9c-19.6-7.8-34.7-22.9-42.6-42.6-11.7-29.5-9-99.5-9-132.1s-2.6-102.7 9-132.1c7.8-19.6 22.9-34.7 42.6-42.6 29.5-11.7 99.5-9 132.1-9s102.7-2.6 132.1 9c19.6 7.8 34.7 22.9 42.6 42.6 11.7 29.5 9 99.5 9 132.1s2.7 102.7-9 132.1z"/></symbol><symbol viewBox="0 0 288 512" class="esvg-inline--fa efa-fragile efa-w-9" id="sWhy-1" xmlns="http://www.w3.org/2000/svg"><path d="M213.9 480H160V350.3c76.7-8.7 134.6-77.6 127.4-157.6l-16-178.1C270.7 6.3 263.9 0 255.7 0H32.3c-8.2 0-15 6.3-15.7 14.6L.6 192.7c-7.2 80 50.7 148.9 127.4 157.6V480H74.1c-24.5 0-33.2 32-20 32h179.8c13.1 0 4.5-32-20-32zM32.5 195.5L47.1 32h71.8L154 90.5c-82.7 49.6-60.8 36.5-86.3 51.8 27.1 21 12.5 9.7 113.5 87.9 3.3 2.5 8 2.3 11-.7 3.3-3.2 3.3-8.5 0-11.8l-70.5-70.6c72.1-43.3 58.3-35 76.2-45.7L156.3 32h84.6l14.6 163.5C260.6 252.7 218.8 320 144 320S27.3 252.9 32.5 195.5z"/></symbol><symbol viewBox="0 0 512 512" class="fsvg-inline--fa ffa-coins ffa-w-16" id="sWhy-2" xmlns="http://www.w3.org/2000/svg"><path d="M336 32c-48.6 0-92.6 9-124.5 23.4-.9.4-51.5 21-51.5 56.6v16.7C76.1 132.2 0 163.4 0 208v192c0 44.2 78.8 80 176 80s176-35.8 176-80v-16.4c89.7-3.7 160-37.9 160-79.6V112c0-37-62.1-80-176-80zm-16 368c0 13.9-50.5 48-144 48S32 413.9 32 400v-50.1c31.8 20.6 84.4 34.1 144 34.1s112.2-13.5 144-34.1V400zm0-96c0 13.9-50.5 48-144 48S32 317.9 32 304v-50.1c31.8 20.6 84.4 34.1 144 34.1s112.2-13.5 144-34.1V304zm-144-48c-81 0-146.7-21.5-146.7-48S95 160 176 160s146.7 21.5 146.7 48S257 256 176 256zm304 48c0 13.1-45 43.6-128 47.3v-64.1c52.8-2.2 99.1-14.6 128-33.3V304zm0-96c0 13.1-45.1 43.4-128 47.2V208c0-5.6-1.7-11-4.1-16.3 54.6-1.7 102.4-14.5 132.1-33.8V208zm-144-48c-7.3 0-14-.5-20.9-.9-36.9-21.7-85-28.2-115.6-30-6.3-5.3-10.1-11-10.1-17.1 0-26.5 65.7-48 146.7-48s146.7 21.5 146.7 48S417 160 336 160z"/></symbol><symbol viewBox="0 0 512 512" class="gsvg-inline--fa gfa-clock gfa-w-16" id="sWhy-3" xmlns="http://www.w3.org/2000/svg"><path d="M256 8C119 8 8 119 8 256s111 248 248 248 248-111 248-248S393 8 256 8zm0 448c-110.5 0-200-89.5-200-200S145.5 56 256 56s200 89.5 200 200-89.5 200-200 200zm61.8-104.4l-84.9-61.7c-3.1-2.3-4.9-5.9-4.9-9.7V116c0-6.6 5.4-12 12-12h32c6.6 0 12 5.4 12 12v141.7l66.8 48.6c5.4 3.9 6.5 11.4 2.6 16.8L334.6 349c-3.9 5.3-11.4 6.5-16.8 2.6z"/></symbol><symbol viewBox="0 0 576 512" class="hsvg-inline--fa hfa-gem hfa-w-18" id="sWhy-4" xmlns="http://www.w3.org/2000/svg"><path d="M463.7 0H112.3c-4.2 0-8.1 2.2-10.3 5.8L1.7 168.6c-2.7 4.4-2.2 10.1 1.2 14l276 325.2c4.8 5.6 13.4 5.6 18.2 0l276-325.2c3.4-3.9 3.8-9.6 1.2-14L474 5.8c-2.2-3.6-6.1-5.8-10.3-5.8zm-13.6 36l74.3 124h-83L384.6 36h65.5zM345 36l56.8 124H174.1L231 36h114zm-219.1 0h65.5l-56.8 124h-83l74.3-124zM61.2 192h73L216 384 61.2 192zm112 0h229.5L288 455.8 173.2 192zM360 384l81.8-192h73L360 384z"/></symbol><symbol viewBox="0 0 512 512" class="isvg-inline--fa ifa-soap ifa-w-16" id="soap" xmlns="http://www.w3.org/2000/svg"><path d="M416 192a95.42 95.42 0 01-30.94 70.21A95.8 95.8 0 01352 448H160a96 96 0 010-192h88.91A95.3 95.3 0 01224 192H96a96 96 0 00-96 96v128a96 96 0 0096 96h320a96 96 0 0096-96V288a96 96 0 00-96-96zm-96 64a64 64 0 10-64-64 64 64 0 0064 64zM208 96a48 48 0 10-48-48 48 48 0 0048 48zm176-32a32 32 0 10-32-32 32 32 0 0032 32zM160 288a64 64 0 000 128h192a64 64 0 000-128z"/></symbol><symbol viewBox="0 0 512 512" class="jsvg-inline--fa jfa-phone jfa-w-16" id="tell" xmlns="http://www.w3.org/2000/svg"><path d="M493.4 24.6l-104-24c-11.3-2.6-22.9 3.3-27.5 13.9l-48 112c-4.2 9.8-1.4 21.3 6.9 28l60.6 49.6c-36 76.7-98.9 140.5-177.2 177.2l-49.6-60.6c-6.8-8.3-18.2-11.1-28-6.9l-112 48C3.9 366.5-2 378.1.6 389.4l24 104C27.1 504.2 36.7 512 48 512c256.1 0 464-207.5 464-464 0-11.2-7.7-20.9-18.6-23.4z"/></symbol><symbol viewBox="0 0 448 512" class="ksvg-inline--fa kfa-telegram-plane kfa-w-14" id="tg" xmlns="http://www.w3.org/2000/svg"><path d="M446.7 98.6l-67.6 318.8c-5.1 22.5-18.4 28.1-37.3 17.5l-103-75.9-49.7 47.8c-5.5 5.5-10.1 10.1-20.7 10.1l7.4-104.9 190.9-172.5c8.3-7.4-1.8-11.5-12.9-4.1L117.8 284 16.2 252.2c-22.1-6.9-22.5-22.1 4.6-32.7L418.2 66.4c18.4-6.9 34.5 4.1 28.5 32.2z"/></symbol><symbol viewBox="0 0 512 512" class="lsvg-inline--fa lfa-viber lfa-w-16" id="vb" xmlns="http://www.w3.org/2000/svg"><path d="M444 49.9C431.3 38.2 379.9.9 265.3.4c0 0-135.1-8.1-200.9 52.3C27.8 89.3 14.9 143 13.5 209.5c-1.4 66.5-3.1 191.1 117 224.9h.1l-.1 51.6s-.8 20.9 13 25.1c16.6 5.2 26.4-10.7 42.3-27.8 8.7-9.4 20.7-23.2 29.8-33.7 82.2 6.9 145.3-8.9 152.5-11.2 16.6-5.4 110.5-17.4 125.7-142 15.8-128.6-7.6-209.8-49.8-246.5zM457.9 287c-12.9 104-89 110.6-103 115.1-6 1.9-61.5 15.7-131.2 11.2 0 0-52 62.7-68.2 79-5.3 5.3-11.1 4.8-11-5.7 0-6.9.4-85.7.4-85.7-.1 0-.1 0 0 0-101.8-28.2-95.8-134.3-94.7-189.8 1.1-55.5 11.6-101 42.6-131.6 55.7-50.5 170.4-43 170.4-43 96.9.4 143.3 29.6 154.1 39.4 35.7 30.6 53.9 103.8 40.6 211.1zm-139-80.8c.4 8.6-12.5 9.2-12.9.6-1.1-22-11.4-32.7-32.6-33.9-8.6-.5-7.8-13.4.7-12.9 27.9 1.5 43.4 17.5 44.8 46.2zm20.3 11.3c1-42.4-25.5-75.6-75.8-79.3-8.5-.6-7.6-13.5.9-12.9 58 4.2 88.9 44.1 87.8 92.5-.1 8.6-13.1 8.2-12.9-.3zm47 13.4c.1 8.6-12.9 8.7-12.9.1-.6-81.5-54.9-125.9-120.8-126.4-8.5-.1-8.5-12.9 0-12.9 73.7.5 133 51.4 133.7 139.2zM374.9 329v.2c-10.8 19-31 40-51.8 33.3l-.2-.3c-21.1-5.9-70.8-31.5-102.2-56.5-16.2-12.8-31-27.9-42.4-42.4-10.3-12.9-20.7-28.2-30.8-46.6-21.3-38.5-26-55.7-26-55.7-6.7-20.8 14.2-41 33.3-51.8h.2c9.2-4.8 18-3.2 23.9 3.9 0 0 12.4 14.8 17.7 22.1 5 6.8 11.7 17.7 15.2 23.8 6.1 10.9 2.3 22-3.7 26.6l-12 9.6c-6.1 4.9-5.3 14-5.3 14s17.8 67.3 84.3 84.3c0 0 9.1.8 14-5.3l9.6-12c4.6-6 15.7-9.8 26.6-3.7 14.7 8.3 33.4 21.2 45.8 32.9 7 5.7 8.6 14.4 3.8 23.6z"/></symbol><symbol viewBox="0 0 448 512" class="msvg-inline--fa mfa-whatsapp mfa-w-14" id="wa" xmlns="http://www.w3.org/2000/svg"><path d="M380.9 97.1C339 55.1 283.2 32 223.9 32c-122.4 0-222 99.6-222 222 0 39.1 10.2 77.3 29.6 111L0 480l117.7-30.9c32.4 17.7 68.9 27 106.1 27h.1c122.3 0 224.1-99.6 224.1-222 0-59.3-25.2-115-67.1-157zm-157 341.6c-33.2 0-65.7-8.9-94-25.7l-6.7-4-69.8 18.3L72 359.2l-4.4-7c-18.5-29.4-28.2-63.3-28.2-98.2 0-101.7 82.8-184.5 184.6-184.5 49.3 0 95.6 19.2 130.4 54.1 34.8 34.9 56.2 81.2 56.1 130.5 0 101.8-84.9 184.6-186.6 184.6zm101.2-138.2c-5.5-2.8-32.8-16.2-37.9-18-5.1-1.9-8.8-2.8-12.5 2.8-3.7 5.6-14.3 18-17.6 21.8-3.2 3.7-6.5 4.2-12 1.4-32.6-16.3-54-29.1-75.5-66-5.7-9.8 5.7-9.1 16.3-30.3 1.8-3.7.9-6.9-.5-9.7-1.4-2.8-12.5-30.1-17.1-41.2-4.5-10.8-9.1-9.3-12.5-9.5-3.2-.2-6.9-.2-10.6-.2-3.7 0-9.7 1.4-14.8 6.9-5.1 5.6-19.4 19-19.4 46.3 0 27.3 19.9 53.7 22.6 57.4 2.8 3.7 39.1 59.7 94.8 83.8 35.2 15.2 49 16.5 66.6 13.9 10.7-1.6 32.8-13.4 37.4-26.4 4.6-13 4.6-24.1 3.2-26.4-1.3-2.5-5-3.9-10.5-6.6z"/></symbol></svg>